<svg xmlns="http://www.w3.org/2000/svg" xmlns:xlink="http://www.w3.org/1999/xlink" width="1920" zoomAndPan="magnify" viewBox="0 0 1440 809.999993" height="1080" preserveAspectRatio="xMidYMid meet" version="1.0"><defs><clipPath id="f825442ee0"><path d="M 604.933594 289.792969 L 835.183594 289.792969 L 835.183594 520.042969 L 604.933594 520.042969 Z M 604.933594 289.792969 " clip-rule="nonzero"/></clipPath></defs><rect x="-144" width="1728" fill="#ffffff" y="-80.999999" height="971.999992" fill-opacity="1"/><path fill="#17ad49" d="M 716.828125 405.9375 L 626.871094 468.929688 C 614.5 450.976562 607.179688 429.289062 606.976562 405.9375 L 716.828125 405.9375 " fill-opacity="1" fill-rule="nonzero"/><path fill="#00a653" d="M 717.996094 407.605469 L 680.421875 510.839844 C 659.214844 502.878906 641.019531 488.722656 628.042969 470.59375 L 717.996094 407.605469 " fill-opacity="1" fill-rule="nonzero"/><path fill="#11b1c6" d="M 719.90625 408.304688 L 748.34375 514.425781 C 739.296875 516.761719 729.820312 518.007812 720.058594 518.007812 C 706.835938 518.007812 694.136719 515.726562 682.332031 511.539062 L 719.90625 408.304688 " fill-opacity="1" fill-rule="nonzero"/><path fill="#2a74c3" d="M 721.878906 407.777344 L 805.988281 478.355469 C 791.566406 495.210938 772.273438 507.792969 750.3125 513.898438 L 721.878906 407.777344 " fill-opacity="1" fill-rule="nonzero"/><path fill="#4951ac" d="M 722.855469 405.9375 L 833.136719 405.9375 C 832.898438 432.816406 823.238281 457.488281 807.304688 476.800781 L 722.855469 405.9375 " fill-opacity="1" fill-rule="nonzero"/><path fill="#9e41a6" d="M 833.136719 403.898438 L 723.285156 403.898438 L 813.246094 340.910156 C 825.613281 358.863281 832.933594 380.550781 833.136719 403.898438 " fill-opacity="1" fill-rule="nonzero"/><path fill="#ec008c" d="M 812.074219 339.246094 L 722.117188 402.234375 L 759.691406 299 C 780.898438 306.960938 799.09375 321.117188 812.074219 339.246094 " fill-opacity="1" fill-rule="nonzero"/><path fill="#ed1a2b" d="M 757.78125 298.300781 L 720.207031 401.535156 L 691.773438 295.414062 C 700.816406 293.074219 710.292969 291.832031 720.058594 291.832031 C 733.277344 291.832031 745.976562 294.113281 757.78125 298.300781 " fill-opacity="1" fill-rule="nonzero"/><path fill="#f9a50d" d="M 689.804688 295.941406 L 718.234375 402.0625 L 634.125 331.484375 C 648.550781 314.625 667.839844 302.042969 689.804688 295.941406 " fill-opacity="1" fill-rule="nonzero"/><path fill="#bcde15" d="M 717.257812 403.898438 L 606.976562 403.898438 C 607.214844 377.023438 616.875 352.351562 632.808594 333.039062 L 717.257812 403.898438 " fill-opacity="1" fill-rule="nonzero"/><path fill="#ffffff" d="M 742.445312 492.417969 L 735.640625 467.015625 C 736.300781 466.851562 736.957031 466.675781 737.609375 466.492188 L 744.414062 491.890625 C 743.761719 492.074219 743.105469 492.25 742.445312 492.417969 M 690.125 490.136719 C 689.484375 489.910156 688.84375 489.679688 688.210938 489.4375 L 697.207031 464.730469 C 697.835938 464.96875 698.476562 465.203125 699.117188 465.425781 L 690.125 490.136719 M 788.570312 463.738281 L 768.429688 446.839844 C 768.875 446.328125 769.3125 445.804688 769.742188 445.28125 L 789.878906 462.179688 C 789.449219 462.703125 789.011719 463.222656 788.570312 463.738281 M 646.675781 457.546875 C 646.277344 456.996094 645.886719 456.4375 645.503906 455.878906 L 667.042969 440.796875 C 667.421875 441.363281 667.8125 441.914062 668.210938 442.464844 L 646.675781 457.546875 M 810.347656 405.9375 L 784.058594 405.9375 C 784.0625 405.597656 784.066406 405.257812 784.066406 404.917969 C 784.066406 404.578125 784.0625 404.238281 784.058594 403.898438 L 810.347656 403.898438 C 810.351562 404.238281 810.351562 404.578125 810.351562 404.917969 C 810.351562 405.257812 810.351562 405.597656 810.347656 405.9375 M 656.058594 405.9375 L 629.765625 405.9375 C 629.765625 405.597656 629.761719 405.257812 629.761719 404.917969 C 629.761719 404.578125 629.765625 404.238281 629.765625 403.898438 L 656.058594 403.898438 C 656.050781 404.238281 656.046875 404.578125 656.046875 404.917969 C 656.046875 405.257812 656.050781 405.597656 656.058594 405.9375 M 773.074219 369.042969 C 772.691406 368.476562 772.300781 367.921875 771.902344 367.375 L 793.4375 352.292969 C 793.835938 352.839844 794.226562 353.402344 794.609375 353.957031 L 773.074219 369.042969 M 670.375 364.558594 L 650.234375 347.660156 C 650.664062 347.136719 651.101562 346.617188 651.542969 346.101562 L 671.683594 363 C 671.238281 363.515625 670.804688 364.03125 670.375 364.558594 M 742.90625 345.109375 C 742.277344 344.871094 741.636719 344.636719 740.996094 344.414062 L 749.992188 319.703125 C 750.632812 319.929688 751.269531 320.160156 751.902344 320.402344 L 742.90625 345.109375 M 702.503906 343.347656 L 695.699219 317.949219 C 696.351562 317.765625 697.007812 317.589844 697.667969 317.421875 L 704.476562 342.820312 C 703.8125 342.988281 703.15625 343.160156 702.503906 343.347656 " fill-opacity="1" fill-rule="nonzero"/><path fill="#25b144" d="M 645.503906 455.878906 C 635.75 441.636719 629.972656 424.457031 629.765625 405.9375 L 656.058594 405.9375 C 656.257812 418.84375 660.28125 430.828125 667.042969 440.796875 L 645.503906 455.878906 " fill-opacity="1" fill-rule="nonzero"/><path fill="#15ae77" d="M 688.210938 489.4375 C 671.402344 483.101562 656.984375 471.898438 646.675781 457.546875 L 668.210938 442.464844 C 675.453125 452.445312 685.503906 460.253906 697.207031 464.730469 L 688.210938 489.4375 " fill-opacity="1" fill-rule="nonzero"/><path fill="#38bdcb" d="M 720.058594 495.214844 C 709.566406 495.214844 699.492188 493.425781 690.125 490.136719 L 699.117188 465.425781 C 705.679688 467.695312 712.722656 468.929688 720.058594 468.929688 C 725.429688 468.929688 730.652344 468.265625 735.640625 467.015625 L 742.445312 492.417969 C 735.289062 494.242188 727.785156 495.214844 720.058594 495.214844 " fill-opacity="1" fill-rule="nonzero"/><path fill="#3e95d8" d="M 744.414062 491.890625 L 737.609375 466.492188 C 749.734375 463.042969 760.390625 456.105469 768.429688 446.839844 L 788.570312 463.738281 C 777.109375 477.074219 761.824219 487.027344 744.414062 491.890625 " fill-opacity="1" fill-rule="nonzero"/><path fill="#655eb4" d="M 789.878906 462.179688 L 769.742188 445.28125 C 778.5 434.511719 783.824219 420.84375 784.058594 405.9375 L 810.347656 405.9375 C 810.109375 427.277344 802.472656 446.839844 789.878906 462.179688 " fill-opacity="1" fill-rule="nonzero"/><path fill="#ad52af" d="M 810.347656 403.898438 L 784.058594 403.898438 C 783.855469 390.996094 779.832031 379.011719 773.074219 369.042969 L 794.609375 353.957031 C 804.363281 368.203125 810.140625 385.382812 810.347656 403.898438 " fill-opacity="1" fill-rule="nonzero"/><path fill="#e82da0" d="M 771.902344 367.375 C 764.660156 357.394531 754.609375 349.582031 742.90625 345.109375 L 751.902344 320.402344 C 768.710938 326.738281 783.128906 337.9375 793.4375 352.292969 L 771.902344 367.375 " fill-opacity="1" fill-rule="nonzero"/><path fill="#ef2d58" d="M 740.996094 344.414062 C 734.433594 342.144531 727.390625 340.910156 720.058594 340.910156 C 714.683594 340.910156 709.460938 341.574219 704.476562 342.820312 L 697.667969 317.421875 C 704.828125 315.59375 712.328125 314.625 720.058594 314.625 C 730.546875 314.625 740.625 316.414062 749.992188 319.703125 L 740.996094 344.414062 " fill-opacity="1" fill-rule="nonzero"/><path fill="#fbbf32" d="M 671.683594 363 L 651.542969 346.101562 C 663.003906 332.765625 678.289062 322.8125 695.699219 317.949219 L 702.503906 343.347656 C 690.378906 346.796875 679.722656 353.734375 671.683594 363 " fill-opacity="1" fill-rule="nonzero"/><path fill="#cbe435" d="M 656.058594 403.898438 L 629.765625 403.898438 C 630.003906 382.5625 637.640625 363 650.234375 347.660156 L 670.375 364.558594 C 661.617188 375.324219 656.289062 389 656.058594 403.898438 " fill-opacity="1" fill-rule="nonzero"/><path fill="#ffffff" d="M 735.640625 467.015625 L 729.398438 443.722656 C 730.0625 443.566406 730.71875 443.386719 731.367188 443.195312 L 737.609375 466.492188 C 736.957031 466.675781 736.300781 466.851562 735.640625 467.015625 M 699.117188 465.425781 C 698.476562 465.203125 697.835938 464.96875 697.207031 464.730469 L 705.453125 442.066406 C 706.085938 442.3125 706.722656 442.546875 707.367188 442.761719 L 699.117188 465.425781 M 768.429688 446.839844 L 749.960938 431.339844 C 750.410156 430.832031 750.847656 430.3125 751.269531 429.78125 L 769.742188 445.28125 C 769.3125 445.804688 768.875 446.328125 768.429688 446.839844 M 668.210938 442.464844 C 667.8125 441.914062 667.421875 441.363281 667.042969 440.796875 L 686.792969 426.96875 C 687.171875 427.535156 687.558594 428.089844 687.960938 428.632812 L 668.210938 442.464844 M 784.058594 405.9375 L 759.945312 405.9375 C 759.957031 405.597656 759.960938 405.257812 759.960938 404.917969 C 759.960938 404.578125 759.957031 404.238281 759.945312 403.898438 L 784.058594 403.898438 C 784.0625 404.238281 784.066406 404.578125 784.066406 404.917969 C 784.066406 405.257812 784.0625 405.597656 784.058594 405.9375 M 680.167969 405.9375 L 656.058594 405.9375 C 656.050781 405.597656 656.046875 405.257812 656.046875 404.917969 C 656.046875 404.578125 656.050781 404.238281 656.058594 403.898438 L 680.167969 403.898438 C 680.160156 404.238281 680.152344 404.578125 680.152344 404.917969 C 680.152344 405.257812 680.160156 405.597656 680.167969 405.9375 M 753.320312 382.871094 C 752.945312 382.304688 752.554688 381.75 752.152344 381.203125 L 771.902344 367.375 C 772.300781 367.921875 772.691406 368.476562 773.074219 369.042969 L 753.320312 382.871094 M 688.84375 380.058594 L 670.375 364.558594 C 670.804688 364.03125 671.238281 363.515625 671.683594 363 L 690.152344 378.5 C 689.703125 379.007812 689.265625 379.527344 688.84375 380.058594 M 734.660156 367.773438 C 734.03125 367.523438 733.390625 367.292969 732.75 367.078125 L 740.996094 344.414062 C 741.636719 344.636719 742.277344 344.871094 742.90625 345.109375 L 734.660156 367.773438 M 708.746094 366.644531 L 702.503906 343.347656 C 703.15625 343.160156 703.8125 342.988281 704.476562 342.820312 L 710.714844 366.113281 C 710.050781 366.273438 709.394531 366.449219 708.746094 366.644531 " fill-opacity="1" fill-rule="nonzero"/><path fill="#6cc964" d="M 667.042969 440.796875 C 660.28125 430.828125 656.257812 418.84375 656.058594 405.9375 L 680.167969 405.9375 C 680.359375 413.703125 682.773438 420.914062 686.792969 426.96875 L 667.042969 440.796875 " fill-opacity="1" fill-rule="nonzero"/><path fill="#62c898" d="M 697.207031 464.730469 C 685.503906 460.253906 675.453125 452.445312 668.210938 442.464844 L 687.960938 428.632812 C 692.382812 434.609375 698.429688 439.304688 705.453125 442.066406 L 697.207031 464.730469 " fill-opacity="1" fill-rule="nonzero"/><path fill="#75d1d3" d="M 720.058594 468.929688 C 712.722656 468.929688 705.679688 467.695312 699.117188 465.425781 L 707.367188 442.761719 C 711.351562 444.097656 715.621094 444.820312 720.058594 444.820312 C 723.273438 444.820312 726.402344 444.441406 729.398438 443.722656 L 735.640625 467.015625 C 730.652344 468.265625 725.429688 468.929688 720.058594 468.929688 " fill-opacity="1" fill-rule="nonzero"/><path fill="#7ebde9" d="M 737.609375 466.492188 L 731.367188 443.195312 C 738.648438 441.046875 745.0625 436.882812 749.960938 431.339844 L 768.429688 446.839844 C 760.390625 456.105469 749.734375 463.042969 737.609375 466.492188 " fill-opacity="1" fill-rule="nonzero"/><path fill="#897ac5" d="M 769.742188 445.28125 L 751.269531 429.78125 C 756.511719 423.210938 759.722656 414.945312 759.945312 405.9375 L 784.058594 405.9375 C 783.824219 420.84375 778.5 434.511719 769.742188 445.28125 " fill-opacity="1" fill-rule="nonzero"/><path fill="#c37dc5" d="M 784.058594 403.898438 L 759.945312 403.898438 C 759.753906 396.136719 757.339844 388.925781 753.320312 382.871094 L 773.074219 369.042969 C 779.832031 379.011719 783.855469 390.996094 784.058594 403.898438 " fill-opacity="1" fill-rule="nonzero"/><path fill="#f073c0" d="M 752.152344 381.203125 C 747.730469 375.230469 741.683594 370.535156 734.660156 367.773438 L 742.90625 345.109375 C 754.609375 349.582031 764.660156 357.394531 771.902344 367.375 L 752.152344 381.203125 " fill-opacity="1" fill-rule="nonzero"/><path fill="#f46c8b" d="M 732.75 367.078125 C 728.761719 365.742188 724.496094 365.015625 720.058594 365.015625 C 716.839844 365.015625 713.710938 365.398438 710.714844 366.113281 L 704.476562 342.820312 C 709.460938 341.574219 714.683594 340.910156 720.058594 340.910156 C 727.390625 340.910156 734.433594 342.144531 740.996094 344.414062 L 732.75 367.078125 " fill-opacity="1" fill-rule="nonzero"/><path fill="#fcd272" d="M 690.152344 378.5 L 671.683594 363 C 679.722656 353.734375 690.378906 346.796875 702.503906 343.347656 L 708.746094 366.644531 C 701.464844 368.792969 695.050781 372.957031 690.152344 378.5 " fill-opacity="1" fill-rule="nonzero"/><path fill="#daec71" d="M 680.167969 403.898438 L 656.058594 403.898438 C 656.289062 389 661.617188 375.324219 670.375 364.558594 L 688.84375 380.058594 C 683.601562 386.628906 680.394531 394.894531 680.167969 403.898438 " fill-opacity="1" fill-rule="nonzero"/><path fill="#ffffff" d="M 729.398438 443.722656 L 719.90625 408.304688 L 707.367188 442.761719 C 706.722656 442.546875 706.085938 442.3125 705.453125 442.066406 L 717.996094 407.605469 L 687.960938 428.632812 C 687.558594 428.089844 687.171875 427.535156 686.792969 426.96875 L 716.828125 405.9375 L 680.167969 405.9375 C 680.160156 405.597656 680.152344 405.257812 680.152344 404.917969 C 680.152344 404.578125 680.160156 404.238281 680.167969 403.898438 L 717.257812 403.898438 L 688.84375 380.058594 C 689.265625 379.527344 689.703125 379.007812 690.152344 378.5 L 718.234375 402.0625 L 708.746094 366.644531 C 709.394531 366.449219 710.050781 366.273438 710.714844 366.113281 L 720.207031 401.535156 L 732.75 367.078125 C 733.390625 367.292969 734.03125 367.523438 734.660156 367.773438 L 722.117188 402.234375 L 752.152344 381.203125 C 752.554688 381.75 752.945312 382.304688 753.320312 382.871094 L 723.285156 403.898438 L 759.945312 403.898438 C 759.957031 404.238281 759.960938 404.578125 759.960938 404.917969 C 759.960938 405.257812 759.957031 405.597656 759.945312 405.9375 L 722.855469 405.9375 L 751.269531 429.78125 C 750.847656 430.3125 750.410156 430.832031 749.960938 431.339844 L 721.878906 407.777344 L 731.367188 443.195312 C 730.71875 443.386719 730.0625 443.566406 729.398438 443.722656 " fill-opacity="1" fill-rule="nonzero"/><path fill="#9dda92" d="M 686.792969 426.96875 C 682.773438 420.914062 680.359375 413.703125 680.167969 405.9375 L 716.828125 405.9375 L 686.792969 426.96875 " fill-opacity="1" fill-rule="nonzero"/><path fill="#96dab2" d="M 705.453125 442.066406 C 698.429688 439.304688 692.382812 434.609375 687.960938 428.632812 L 717.996094 407.605469 L 705.453125 442.066406 " fill-opacity="1" fill-rule="nonzero"/><path fill="#9edfdd" d="M 720.058594 444.820312 C 715.621094 444.820312 711.351562 444.097656 707.367188 442.761719 L 719.90625 408.304688 L 729.398438 443.722656 C 726.402344 444.441406 723.273438 444.820312 720.058594 444.820312 " fill-opacity="1" fill-rule="nonzero"/><path fill="#a7d4f2" d="M 731.367188 443.195312 L 721.878906 407.777344 L 749.960938 431.339844 C 745.0625 436.882812 738.648438 441.046875 731.367188 443.195312 " fill-opacity="1" fill-rule="nonzero"/><path fill="#b5a3d8" d="M 751.269531 429.78125 L 722.855469 405.9375 L 759.945312 405.9375 C 759.722656 414.945312 756.511719 423.210938 751.269531 429.78125 " fill-opacity="1" fill-rule="nonzero"/><path fill="#daa5d8" d="M 759.945312 403.898438 L 723.285156 403.898438 L 753.320312 382.871094 C 757.339844 388.925781 759.753906 396.136719 759.945312 403.898438 " fill-opacity="1" fill-rule="nonzero"/><path fill="#f79fd4" d="M 722.117188 402.234375 L 734.660156 367.773438 C 741.683594 370.535156 747.730469 375.230469 752.152344 381.203125 L 722.117188 402.234375 " fill-opacity="1" fill-rule="nonzero"/><path fill="#f89ab0" d="M 720.207031 401.535156 L 710.714844 366.113281 C 713.710938 365.398438 716.839844 365.015625 720.058594 365.015625 C 724.496094 365.015625 728.761719 365.742188 732.75 367.078125 L 720.207031 401.535156 " fill-opacity="1" fill-rule="nonzero"/><path fill="#fddf9e" d="M 718.234375 402.0625 L 690.152344 378.5 C 695.050781 372.957031 701.464844 368.792969 708.746094 366.644531 L 718.234375 402.0625 " fill-opacity="1" fill-rule="nonzero"/><path fill="#e5f29c" d="M 717.257812 403.898438 L 680.167969 403.898438 C 680.394531 394.894531 683.601562 386.628906 688.84375 380.058594 L 717.257812 403.898438 " fill-opacity="1" fill-rule="nonzero"/><g clip-path="url(#f825442ee0)"><path fill="#1e3f59" d="M 723.285156 403.898438 L 813.246094 340.910156 C 825.613281 358.863281 832.933594 380.550781 833.136719 403.898438 Z M 807.304688 476.800781 L 722.855469 405.9375 L 833.136719 405.9375 C 832.898438 432.816406 823.238281 457.488281 807.304688 476.800781 Z M 750.3125 513.898438 L 721.878906 407.777344 L 805.988281 478.355469 C 791.566406 495.210938 772.273438 507.792969 750.3125 513.898438 Z M 720.058594 518.007812 C 706.835938 518.007812 694.136719 515.726562 682.332031 511.539062 L 719.90625 408.304688 L 748.34375 514.425781 C 739.296875 516.761719 729.820312 518.007812 720.058594 518.007812 Z M 680.421875 510.839844 C 659.214844 502.878906 641.019531 488.722656 628.042969 470.59375 L 717.996094 407.605469 Z M 606.976562 405.9375 L 716.828125 405.9375 L 626.871094 468.929688 C 614.5 450.976562 607.179688 429.289062 606.976562 405.9375 Z M 632.808594 333.039062 L 717.257812 403.898438 L 606.976562 403.898438 C 607.214844 377.023438 616.875 352.351562 632.808594 333.039062 Z M 689.804688 295.941406 L 718.234375 402.0625 L 634.125 331.484375 C 648.550781 314.625 667.839844 302.042969 689.804688 295.941406 Z M 720.058594 291.832031 C 733.277344 291.832031 745.976562 294.113281 757.78125 298.300781 L 720.207031 401.535156 L 691.773438 295.414062 C 700.816406 293.074219 710.292969 291.832031 720.058594 291.832031 Z M 759.691406 299 C 780.898438 306.960938 799.09375 321.117188 812.074219 339.246094 L 722.117188 402.234375 Z M 835.175781 403.898438 C 834.976562 380.640625 827.921875 358.472656 814.96875 339.707031 C 814.585938 339.144531 814.195312 338.589844 813.792969 338.042969 C 810.125 332.917969 806.007812 328.058594 801.464844 323.511719 C 789.617188 311.667969 775.648438 302.722656 760.410156 297.03125 C 759.773438 296.792969 759.136719 296.5625 758.492188 296.339844 C 746.3125 292.035156 733.359375 289.792969 720.058594 289.792969 C 710.203125 289.792969 700.539062 291.023438 691.234375 293.414062 C 690.578125 293.582031 689.917969 293.753906 689.265625 293.9375 C 670.308594 299.164062 652.933594 309.230469 638.652344 323.511719 C 636.511719 325.652344 634.46875 327.859375 632.523438 330.136719 C 632.078125 330.652344 631.640625 331.171875 631.207031 331.695312 C 614.402344 352.011719 605.164062 377.238281 604.9375 403.898438 C 604.933594 404.238281 604.933594 404.578125 604.933594 404.917969 C 604.933594 405.257812 604.933594 405.597656 604.9375 405.9375 C 605.136719 429.199219 612.195312 451.367188 625.144531 470.132812 C 625.527344 470.691406 625.921875 471.246094 626.320312 471.796875 C 629.988281 476.921875 634.105469 481.78125 638.652344 486.328125 C 650.496094 498.171875 664.46875 507.113281 679.703125 512.808594 C 680.339844 513.046875 680.980469 513.273438 681.621094 513.5 C 693.800781 517.800781 706.753906 520.042969 720.058594 520.042969 C 729.914062 520.042969 739.578125 518.816406 748.878906 516.425781 C 749.539062 516.257812 750.199219 516.085938 750.847656 515.902344 C 769.804688 510.675781 787.179688 500.609375 801.464844 486.328125 C 803.601562 484.1875 805.648438 481.980469 807.59375 479.703125 C 808.039062 479.1875 808.476562 478.667969 808.90625 478.144531 C 825.710938 457.828125 834.949219 432.601562 835.175781 405.9375 C 835.183594 405.597656 835.183594 405.257812 835.183594 404.917969 C 835.183594 404.578125 835.183594 404.238281 835.175781 403.898438 " fill-opacity="1" fill-rule="nonzero"/></g></svg>